<svg xmlns="http://www.w3.org/2000/svg" width="40" height="40" viewBox="0 0 40 40"><defs><style>.a{fill:#2bcbba;}</style></defs><path class="a" d="M39,62.483a1.379,1.379,0,0,0-1.379,1.379v2.759a1.379,1.379,0,1,0,2.759,0V63.862A1.38,1.38,0,0,0,39,62.483Zm-6.207-4.138a1.379,1.379,0,0,0-1.379,1.379v2.759a1.379,1.379,0,1,0,2.759,0V59.724A1.38,1.38,0,0,0,32.793,58.345Zm12.414,0a1.379,1.379,0,0,0-1.379,1.379v2.759a1.379,1.379,0,1,0,2.759,0V59.724A1.38,1.38,0,0,0,45.207,58.345Zm6.207-22.069a6.852,6.852,0,0,0-1.165.127,11.731,11.731,0,0,0-22.5,0,6.844,6.844,0,0,0-1.164-.127,7.586,7.586,0,1,0,0,15.172h4.828v2.759a1.379,1.379,0,0,0,2.759,0V51.448h9.655v2.759a1.379,1.379,0,0,0,2.759,0V51.448h4.828a7.586,7.586,0,0,0,0-15.172Zm0,12.414H26.586a4.828,4.828,0,0,1,0-9.655,4.889,4.889,0,0,1,.823.112v1.268a1.379,1.379,0,1,0,2.759,0v-2.22a8.964,8.964,0,0,1,17.665,0v2.219a1.379,1.379,0,1,0,2.759,0V39.147a4.93,4.93,0,0,1,.823-.112,4.828,4.828,0,0,1,0,9.655ZM39,54.207a1.379,1.379,0,0,0-1.379,1.379v2.759a1.379,1.379,0,1,0,2.759,0V55.586A1.38,1.38,0,0,0,39,54.207Z" transform="translate(-19 -28)"/></svg>