<svg xmlns="http://www.w3.org/2000/svg" width="173.002" height="32" viewBox="0 0 173.002 32"><defs><style>.a{fill:#fff;}.b,.d{fill:none;}.b{stroke:#fff;stroke-width:3px;}.c{stroke:none;}</style></defs><g transform="translate(-100 -19)"><path class="a" d="M11.191,12.844l2.969.449a7.615,7.615,0,0,1-2.607,3.687A6.7,6.7,0,0,1,7.48,18.254a5.347,5.347,0,0,1-4.106-1.582,6.48,6.48,0,0,1-1.479-4.59,10.03,10.03,0,0,1,.991-4.468A7.2,7.2,0,0,1,9.463,3.439a5.533,5.533,0,0,1,3.76,1.245,5.1,5.1,0,0,1,1.689,3.394l-2.822.273a3,3,0,0,0-.9-1.812A2.681,2.681,0,0,0,9.4,5.979a3.9,3.9,0,0,0-2.28.742A5.016,5.016,0,0,0,5.43,9.04a8.381,8.381,0,0,0-.635,3.149,3.892,3.892,0,0,0,.825,2.656,2.627,2.627,0,0,0,2.056.938,3.33,3.33,0,0,0,2.095-.742A4.4,4.4,0,0,0,11.191,12.844ZM15.342,18l3-14.316h2.939l-2.49,11.924h7.285L25.576,18Zm12.012,0,3-14.316h2.939L30.3,18ZM41.27,18H38.477L37.959,6.037,35.684,18H33.027L36.016,3.684h4.2l.439,10.029L45.537,3.684h4.248L46.787,18H44.1L46.924,6.125Zm17.8-3.164H53.4L51.68,18H48.652l8.1-14.316H60.02L62.344,18H59.551Zm-.361-2.383-.83-5.762-3.457,5.762Zm-2.373-9.57h-1.23a4.555,4.555,0,0,1,.625-1.67A1.6,1.6,0,0,1,57.041.529a6.467,6.467,0,0,1,1.816.479,3.841,3.841,0,0,0,1.045.273.547.547,0,0,0,.381-.142,1.41,1.41,0,0,0,.293-.62h1.25a3.209,3.209,0,0,1-.737,1.772,1.683,1.683,0,0,1-1.235.571,4.36,4.36,0,0,1-1.406-.391,4.76,4.76,0,0,0-1.23-.391.791.791,0,0,0-.508.171A1.354,1.354,0,0,0,56.338,2.883Zm8.73,9.5a10.241,10.241,0,0,1,.381-2.676,9.591,9.591,0,0,1,1.519-3.271,7.355,7.355,0,0,1,2.573-2.192,7.563,7.563,0,0,1,3.535-.806,5.775,5.775,0,0,1,4.292,1.65A5.943,5.943,0,0,1,79,9.465a9.655,9.655,0,0,1-1.064,4.385,7.946,7.946,0,0,1-2.891,3.262,7.626,7.626,0,0,1-4.131,1.143,5.908,5.908,0,0,1-3.359-.908,5.067,5.067,0,0,1-1.924-2.251A6.919,6.919,0,0,1,65.068,12.385Zm2.91-.059a3.552,3.552,0,0,0,.9,2.471,3.031,3.031,0,0,0,2.363,1,3.881,3.881,0,0,0,2.29-.786,5.724,5.724,0,0,0,1.816-2.383,7.559,7.559,0,0,0,.718-3.11,3.707,3.707,0,0,0-.908-2.651A3.044,3.044,0,0,0,72.842,5.9a4.078,4.078,0,0,0-3.511,2.012A7.747,7.747,0,0,0,67.979,12.326Zm12.344,2.969H83.1L82.529,18H79.756Zm15.3-2.451,2.969.449a7.615,7.615,0,0,1-2.607,3.687,6.7,6.7,0,0,1-4.072,1.274,5.347,5.347,0,0,1-4.106-1.582,6.48,6.48,0,0,1-1.479-4.59,10.03,10.03,0,0,1,.991-4.468A7.2,7.2,0,0,1,93.9,3.439a5.533,5.533,0,0,1,3.76,1.245,5.1,5.1,0,0,1,1.689,3.394l-2.822.273a3,3,0,0,0-.9-1.812,2.681,2.681,0,0,0-1.782-.562,3.9,3.9,0,0,0-2.28.742A5.016,5.016,0,0,0,89.863,9.04a8.381,8.381,0,0,0-.635,3.149,3.892,3.892,0,0,0,.825,2.656,2.627,2.627,0,0,0,2.056.938,3.33,3.33,0,0,0,2.095-.742A4.4,4.4,0,0,0,95.625,12.844Zm5-.459a10.241,10.241,0,0,1,.381-2.676,9.591,9.591,0,0,1,1.519-3.271A7.355,7.355,0,0,1,105.1,4.245a7.563,7.563,0,0,1,3.535-.806,5.775,5.775,0,0,1,4.292,1.65,5.943,5.943,0,0,1,1.636,4.375A9.655,9.655,0,0,1,113.5,13.85a7.946,7.946,0,0,1-2.891,3.262,7.626,7.626,0,0,1-4.131,1.143,5.908,5.908,0,0,1-3.359-.908,5.067,5.067,0,0,1-1.924-2.251A6.919,6.919,0,0,1,100.625,12.385Zm2.91-.059a3.552,3.552,0,0,0,.9,2.471,3.031,3.031,0,0,0,2.363,1,3.881,3.881,0,0,0,2.29-.786,5.724,5.724,0,0,0,1.816-2.383,7.559,7.559,0,0,0,.718-3.11,3.707,3.707,0,0,0-.908-2.651A3.044,3.044,0,0,0,108.4,5.9a4.078,4.078,0,0,0-3.511,2.012A7.747,7.747,0,0,0,103.535,12.326ZM123.486,18h-2.793l-.518-11.963L117.9,18h-2.656l2.988-14.316h4.2l.439,10.029,4.883-10.029H132L129,18h-2.686l2.822-11.875Z" transform="translate(141 25)"/><g transform="translate(-88.57 139.43)"><path class="a" d="M10.023,1.452V.7a.716.716,0,1,0-1.432,0v.748a9.357,9.357,0,0,0-8.6,9.3.716.716,0,1,0,1.432,0,1.432,1.432,0,1,1,2.864,0,.716.716,0,1,0,1.432,0,1.432,1.432,0,1,1,2.864,0l-.01,7.53a1.79,1.79,0,1,0,3.58,0,.716.716,0,1,0-1.432,0,.358.358,0,1,1-.716,0l.01-7.53a1.432,1.432,0,1,1,2.864,0,.716.716,0,1,0,1.432,0,1.432,1.432,0,1,1,2.864,0,.716.716,0,1,0,1.432,0A9.3,9.3,0,0,0,10.023,1.452Z" transform="translate(190.98 -108.976) rotate(-30)"/><g class="b" transform="translate(188.57 -120.43)"><circle class="c" cx="16" cy="16" r="16"/><circle class="d" cx="16" cy="16" r="14.5"/></g></g></g></svg>