<svg xmlns="http://www.w3.org/2000/svg" width="40" height="35.862" viewBox="0 0 40 35.862"><defs><style>.a{fill:#2bcbba;}</style></defs><path class="a" d="M51.414,36.276a6.851,6.851,0,0,0-1.165.127,11.731,11.731,0,0,0-22.5,0,6.844,6.844,0,0,0-1.164-.127,7.586,7.586,0,1,0,0,15.172h7.768l-2.708,4.063a1.379,1.379,0,0,0,1.148,2.144h1.561l-2.708,4.063a1.379,1.379,0,1,0,2.3,1.53l4.138-6.207A1.379,1.379,0,0,0,36.931,54.9H35.37l2.3-3.448H41.25l-1.329,1.994a1.379,1.379,0,0,0,1.148,2.144H42.63L41.3,57.58a1.379,1.379,0,1,0,2.3,1.53l2.759-4.138a1.379,1.379,0,0,0-1.148-2.144H43.646l.919-1.379h6.848a7.586,7.586,0,1,0,0-15.172Zm0,12.414H26.586a4.828,4.828,0,1,1,0-9.655,4.889,4.889,0,0,1,.823.112v1.268a1.379,1.379,0,1,0,2.759,0v-2.22a8.964,8.964,0,0,1,17.665,0v2.219a1.379,1.379,0,1,0,2.759,0V39.147a4.93,4.93,0,0,1,.823-.112,4.828,4.828,0,0,1,0,9.655Z" transform="translate(-19 -28)"/></svg>